<svg width="116" height="64" viewBox="0 0 116 64" fill="none" xmlns="http://www.w3.org/2000/svg">
<path opacity="0.2" d="M21.2994 1.78381H32.4794V62.8438H21.6434L10.2054 27.4978C11.6674 36.4418 11.9254 44.8698 11.9254 62.8438H0.74542V1.78381H11.5814L23.0194 37.4738C21.5574 28.6158 21.2994 20.0158 21.2994 1.78381ZM51.4182 62.8438H39.3782V1.78381H51.4182V62.8438ZM71.4327 63.7038C61.6287 63.7038 55.5227 57.8558 55.7807 42.7198H68.5947C68.3367 51.2338 69.3687 53.5558 71.4327 53.5558C73.4107 53.5558 74.0127 51.4918 74.0127 49.9438C74.0127 38.5058 57.0707 29.9918 57.0707 15.3718C57.0707 6.77181 62.7467 0.923809 71.2607 0.923809C81.4087 0.923809 86.9987 6.59981 86.7407 20.9618H74.3567C74.5287 13.0498 73.7547 11.0718 71.7767 11.0718C70.0567 11.0718 69.3687 12.7058 69.3687 14.8558C69.3687 25.6058 86.7407 33.6898 86.7407 48.8258C86.7407 57.9418 81.0647 63.7038 71.4327 63.7038ZM115.873 1.78381V12.7058H103.489V26.7238H114.325V37.3878H103.489V51.9218H115.873V62.8438H91.4485V1.78381H115.873Z" fill="white"/>
</svg>
