<svg width="80" height="80" viewBox="0 0 80 80" fill="none" xmlns="http://www.w3.org/2000/svg">
<g id="play">
<path id="Solid" fill-rule="evenodd" clip-rule="evenodd" d="M26.6875 9.34097C26.7273 9.36754 26.7673 9.3942 26.8074 9.42094L61.9698 32.8626C62.9873 33.5407 63.9306 34.1695 64.6551 34.7538C65.4112 35.3636 66.3025 36.2091 66.8155 37.4461C67.4936 39.0812 67.4936 40.9187 66.8155 42.5537C66.3025 43.7908 65.4112 44.6363 64.6551 45.2461C63.9306 45.8304 62.9874 46.4591 61.97 47.1372L26.6876 70.6588C25.444 71.488 24.3257 72.2337 23.3768 72.7479C22.4273 73.2625 21.1239 73.8505 19.6026 73.7597C17.6568 73.6435 15.8593 72.6815 14.6833 71.1269C13.7638 69.9116 13.5301 68.5009 13.4316 67.4254C13.3331 66.3507 13.3332 65.0067 13.3333 63.512L13.3333 16.632C13.3333 16.5838 13.3333 16.5358 13.3333 16.4879C13.3332 14.9932 13.3331 13.6492 13.4316 12.5745C13.5301 11.499 13.7638 10.0883 14.6833 8.87296C15.8593 7.31837 17.6568 6.35637 19.6026 6.24019C21.1239 6.14936 22.4273 6.73739 23.3768 7.25199C24.3257 7.76622 25.4439 8.51181 26.6875 9.34097Z" fill="white"/>
</g>
</svg>
