<svg width="26" height="26" viewBox="0 0 26 26" fill="none" xmlns="http://www.w3.org/2000/svg">
<g id="Social / Telegram">
<path id="Vector" d="M21.6232 3.95902C21.6232 3.95902 23.7268 3.13884 23.5519 5.13257C23.4928 5.95275 22.9681 8.82457 22.5592 11.9316L21.1552 21.1344C21.1552 21.1344 21.0382 22.4817 19.9852 22.718C18.9333 22.952 17.3556 21.8967 17.0637 21.6615C16.8297 21.4854 12.6792 18.8487 11.2173 17.5582C10.8083 17.2072 10.3403 16.504 11.2763 15.6827L17.4135 9.82084C18.1155 9.11766 18.8175 7.47729 15.8937 9.46984L7.70962 15.0386C7.70962 15.0386 6.7748 15.6247 5.02099 15.0977L1.22026 13.9241C1.22026 13.9241 -0.18256 13.0448 2.21417 12.1656C8.06062 9.41193 15.2508 6.59802 21.6232 3.9602V3.95902Z" fill="white"/>
</g>
</svg>
