<svg width="20" height="20" viewBox="0 0 20 20" fill="none" xmlns="http://www.w3.org/2000/svg">
<g id="Social / Book">
<path id="Vector" d="M8.65243 10.407C9.46623 10.8757 9.86987 11.1101 10.3158 11.1101C10.7618 11.1101 11.1687 10.8757 11.9825 10.407L17.155 7.42845C17.3894 7.29499 17.5326 7.04434 17.5326 6.77416C17.5326 6.50397 17.3894 6.25658 17.155 6.11986L11.9792 3.14134C11.1654 2.67259 10.7618 2.44147 10.3158 2.44147C9.86987 2.44147 9.46297 2.67585 8.65243 3.1446L4.20581 5.7097C4.17 5.72924 4.15047 5.74226 4.1342 5.75202C2.61727 6.64069 1.67977 8.26504 1.66675 10.0229C1.66675 10.0424 1.66675 10.0619 1.66675 10.1042C1.66675 10.1466 1.66675 10.1661 1.66675 10.1856C1.67977 11.9434 2.61727 13.5645 4.13094 14.4565C4.14722 14.4662 4.16675 14.476 4.20256 14.4988L6.9825 16.1068C8.61011 17.0476 9.42391 17.5163 10.3158 17.5196C11.2078 17.5229 12.0248 17.0509 13.6524 16.1101L16.5919 14.4141C17.4057 13.9454 17.8126 13.711 18.0339 13.3236C18.2553 12.9363 18.2585 12.4675 18.2585 11.5268V10.1173V9.7071C18.2585 9.44668 18.1186 9.2058 17.8907 9.07885C17.6694 8.95515 17.4024 8.9584 17.1811 9.0821L11.1459 12.5554C10.739 12.7898 10.5372 12.907 10.3158 12.907C10.0945 12.907 9.88941 12.7898 9.48576 12.5587L5.40373 10.2117C5.19865 10.0945 5.09448 10.0359 5.0131 10.0229C4.8243 10.0001 4.64526 10.1042 4.57365 10.28C4.5411 10.3581 4.54435 10.4753 4.54435 10.713C4.54435 10.8855 4.54435 10.9734 4.56063 11.0548C4.59644 11.2338 4.69084 11.3966 4.82756 11.517C4.8894 11.5723 4.96427 11.6147 5.11401 11.7025L9.47925 14.2253C9.88615 14.4597 10.088 14.5769 10.3126 14.5769C10.5372 14.5769 10.739 14.4597 11.1459 14.2253L16.4975 11.1361C16.6375 11.0548 16.7058 11.0157 16.7579 11.045C16.81 11.0743 16.81 11.1557 16.81 11.3152V12.1387C16.81 12.3731 16.81 12.4903 16.7546 12.588C16.6993 12.6856 16.5984 12.7442 16.3933 12.8614L11.9825 15.4037C11.1687 15.8725 10.7618 16.1068 10.3158 16.1068C9.86987 16.1068 9.46297 15.8725 8.64917 15.4005L4.52157 13.0176C4.50529 13.0079 4.49878 13.0046 4.49227 13.0014C3.62638 12.4936 3.09578 11.5691 3.08927 10.5697C3.08927 10.5632 3.08927 10.5535 3.08927 10.5372V9.77546C3.08927 9.22207 3.3855 8.71101 3.86401 8.43106C4.28719 8.18366 4.81128 8.18366 5.23446 8.43106L8.65243 10.407Z" fill="white"/>
</g>
</svg>
