<svg width="26" height="26" viewBox="0 0 26 26" fill="none" xmlns="http://www.w3.org/2000/svg">
<g id="Social / YouTube">
<path id="Subtract" fill-rule="evenodd" clip-rule="evenodd" d="M20.9735 6.23596C21.8517 6.47217 22.5432 7.16818 22.778 8.05195L22.7779 8.05204C23.2044 9.65391 23.2044 12.9962 23.2044 12.9962C23.2044 12.9962 23.2044 16.3383 22.7779 17.9404C22.5431 18.8242 21.8516 19.5201 20.9734 19.7565C19.382 20.1856 13 20.1856 13 20.1856C13 20.1856 6.61805 20.1856 5.02652 19.7565C4.1484 19.52 3.45674 18.8241 3.22218 17.9403C2.79578 16.3382 2.79578 12.9961 2.79578 12.9961C2.79578 12.9961 2.79578 9.65383 3.22218 8.05195C3.45674 7.16818 4.1484 6.47217 5.02661 6.23596C6.61813 5.80668 13.0001 5.80668 13.0001 5.80668C13.0001 5.80668 19.3821 5.80668 20.9735 6.23596ZM16.2469 12.9963L10.9128 16.0306V9.96161L16.2469 12.9963Z" fill="white"/>
</g>
</svg>
